<?xml version="1.0" standalone="no"?><!DOCTYPE svg PUBLIC "-//W3C//DTD SVG 1.1//EN" "http://www.w3.org/Graphics/SVG/1.1/DTD/svg11.dtd"><svg t="1713029970399" class="icon" viewBox="0 0 1024 1024" version="1.1" xmlns="http://www.w3.org/2000/svg" p-id="26165" xmlns:xlink="http://www.w3.org/1999/xlink" width="200" height="200"><path d="M800 812.8h-576c-19.2 0-32-12.8-32-32s12.8-32 32-32h576c19.2 0 32 12.8 32 32s-12.8 32-32 32z" fill="#000000" p-id="26166"></path><path d="M832 128c38.4 0 64 25.6 64 64v640c0 38.4-25.6 64-64 64H192c-38.4 0-64-25.6-64-64V192c0-38.4 25.6-64 64-64h640m0-64H192c-70.4 0-128 57.6-128 128v640c0 70.4 57.6 128 128 128h640c70.4 0 128-57.6 128-128V192c0-70.4-57.6-128-128-128z" fill="#000000" p-id="26167"></path><path d="M499.2 588.8c0 12.8-6.4 19.2-19.2 19.2h-19.2c-12.8 0-19.2-6.4-19.2-19.2l-32-70.4H268.8l-25.6 70.4c-6.4 12.8-12.8 19.2-25.6 19.2h-12.8c-12.8 0-19.2-6.4-19.2-19.2 0-6.4 0-12.8 6.4-19.2l108.8-275.2c6.4-19.2 19.2-25.6 38.4-25.6h6.4c19.2 0 32 12.8 38.4 25.6l108.8 275.2c0 6.4 6.4 19.2 6.4 19.2zM396.8 467.2L339.2 320l-51.2 147.2h108.8zM576 608c-32 0-44.8-12.8-44.8-44.8V313.6c0-32 12.8-44.8 44.8-44.8h70.4c108.8 0 172.8 57.6 172.8 172.8 0 108.8-64 172.8-172.8 172.8H576z m185.6-172.8c0-76.8-38.4-121.6-115.2-121.6h-57.6v243.2h57.6c83.2 6.4 115.2-38.4 115.2-121.6z" fill="#000000" p-id="26168"></path></svg>