<?xml version="1.0" standalone="no"?><!DOCTYPE svg PUBLIC "-//W3C//DTD SVG 1.1//EN" "http://www.w3.org/Graphics/SVG/1.1/DTD/svg11.dtd"><svg t="1701278431011" class="icon" viewBox="0 0 1024 1024" version="1.1" xmlns="http://www.w3.org/2000/svg" p-id="7008" xmlns:xlink="http://www.w3.org/1999/xlink" width="200" height="200"><path d="M887.222857 629.577143a27.428571 27.428571 0 1 1-52.297143-16.384c10.130286-32.438857 15.36-66.450286 15.36-101.193143A338.285714 338.285714 0 1 0 512 850.285714a338.651429 338.651429 0 0 0 89.965714-12.068571 27.428571 27.428571 0 1 1 14.555429 52.882286A393.508571 393.508571 0 0 1 512 905.142857C294.875429 905.142857 118.857143 729.124571 118.857143 512S294.875429 118.857143 512 118.857143 905.142857 294.875429 905.142857 512c0 40.301714-6.070857 79.835429-17.92 117.577143z" fill="#000000" p-id="7009"></path><path d="M621.641143 419.291429c0-54.784-49.188571-99.291429-109.641143-99.291429-60.525714 0-109.714286 44.507429-109.714286 99.291429v13.312a27.428571 27.428571 0 1 0 54.857143 0v-13.348572c0-24.502857 24.649143-44.397714 54.857143-44.397714 30.244571 0 54.857143 19.894857 54.857143 44.434286v42.130285c0.073143 1.316571-0.475429 27.099429-34.121143 50.578286a145.225143 145.225143 0 0 1-27.574857 15.067429 27.062857 27.062857 0 0 0-20.553143 26.075428v31.853714a27.428571 27.428571 0 1 0 54.857143 0v-13.275428c35.949714-17.700571 56.32-39.826286 67.730286-59.721143 15.908571-27.867429 14.555429-51.309714 14.482285-51.968v-40.740571zM512 649.142857a27.428571 27.428571 0 1 0 0 54.857143 27.428571 27.428571 0 0 0 0-54.857143z" fill="#000000" p-id="7010"></path><path d="M872.374857 760.868571l-164.571428-127.158857a13.677714 13.677714 0 0 0-22.089143 10.861715v254.354285a13.714286 13.714286 0 0 0 22.089143 10.825143l164.571428-127.158857a13.714286 13.714286 0 0 0 0-21.723429" fill="#000000" p-id="7011"></path></svg>