<?xml version="1.0" standalone="no"?><!DOCTYPE svg PUBLIC "-//W3C//DTD SVG 1.1//EN" "http://www.w3.org/Graphics/SVG/1.1/DTD/svg11.dtd"><svg t="1700278883517" class="icon" viewBox="0 0 1024 1024" version="1.1" xmlns="http://www.w3.org/2000/svg" p-id="1029" xmlns:xlink="http://www.w3.org/1999/xlink" width="200" height="200"><path d="M800.35328 198.18496h78.11584c35.13856 0 63.62112 27.89376 63.62112 62.30016v474.32192c0 34.4064-28.48256 62.30016-63.62112 62.30016H145.53088c-35.13856 0-63.62112-27.89376-63.62112-62.30016v-474.3168c0-34.4064 28.48256-62.30016 63.62112-62.30016H223.6416" fill="#FFDD50" p-id="1030"></path><path d="M878.46912 815.01696H145.53088c-44.9536 0-81.53088-35.97824-81.53088-80.20992V260.48512c0-44.22656 36.57728-80.20992 81.53088-80.20992H223.6416a17.90976 17.90976 0 1 1 0 35.81952H145.53088c-25.20576 0-45.71136 19.91168-45.71136 44.3904v474.32192c0 24.4736 20.5056 44.3904 45.71136 44.3904h732.93824c25.20576 0 45.71136-19.91168 45.71136-44.3904V260.48512c0-24.47872-20.5056-44.3904-45.71136-44.3904h-78.11584a17.91488 17.91488 0 0 1 0-35.81952h78.11584c44.95872 0 81.53088 35.98336 81.53088 80.20992v474.32192c0 44.23168-36.57216 80.20992-81.53088 80.20992z" fill="" p-id="1031"></path><path d="M800.35328 300.3648H223.64672V181.08416a28.95872 28.95872 0 0 1 28.95872-28.95872h518.79424a28.95872 28.95872 0 0 1 28.95872 28.95872v119.28064z" fill="#FFDD50" p-id="1032"></path><path d="M800.35328 318.27456H223.64672a17.90976 17.90976 0 0 1-17.90976-17.90976v-119.296c0-25.8304 21.0176-46.848 46.848-46.848h518.82496c25.83552 0 46.85312 21.0176 46.85312 46.848v119.296a17.90976 17.90976 0 0 1-17.90976 17.90976z m-558.7968-35.81952h540.89216V181.0688a11.04384 11.04384 0 0 0-11.0336-11.02848H252.58496a11.04384 11.04384 0 0 0-11.02848 11.02848v101.38624z" fill="" p-id="1033"></path><path d="M167.58784 797.1072h688.82432v74.76224H167.58784z" fill="#FFDD50" p-id="1034"></path><path d="M856.41216 889.78432H167.58784a17.90976 17.90976 0 0 1-17.90976-17.90976v-74.76736a17.91488 17.91488 0 0 1 17.90976-17.90976h688.82432a17.91488 17.91488 0 0 1 17.90976 17.90976v74.76736a17.92 17.92 0 0 1-17.90976 17.90976zM185.4976 853.9648h653.0048v-38.94784H185.4976v38.94784z" fill="" p-id="1035"></path><path d="M223.64672 300.3648h576.70656v392.54016H223.64672z" fill="#5CB9FF" p-id="1036"></path><path d="M800.35328 710.81472H223.64672a17.90976 17.90976 0 0 1-17.90976-17.90976V300.3648a17.90976 17.90976 0 0 1 17.90976-17.90976h576.70656a17.91488 17.91488 0 0 1 17.90976 17.90976v392.54016a17.91488 17.91488 0 0 1-17.90976 17.90976z m-558.7968-35.81952h540.89216V318.27456H241.55648v356.72064zM157.40928 351.49824H81.90976a17.90976 17.90976 0 1 1 0-35.81952h75.49952a17.90976 17.90976 0 1 1 0 35.81952zM157.40928 427.08992H81.90976a17.90976 17.90976 0 1 1 0-35.81952h75.49952a17.90976 17.90976 0 1 1 0 35.81952zM157.40928 502.6816H81.90976a17.90976 17.90976 0 1 1 0-35.81952h75.49952a17.90976 17.90976 0 1 1 0 35.81952zM157.40928 578.27328H81.90976a17.90976 17.90976 0 1 1 0-35.81952h75.49952a17.90976 17.90976 0 1 1 0 35.81952zM157.40928 653.86496H81.90976a17.90976 17.90976 0 1 1 0-35.81952h75.49952a17.90976 17.90976 0 1 1 0 35.81952zM942.09024 351.49824h-75.49952a17.91488 17.91488 0 0 1 0-35.81952h75.49952a17.91488 17.91488 0 0 1 0 35.81952zM942.09024 427.08992h-75.49952a17.91488 17.91488 0 0 1 0-35.81952h75.49952a17.91488 17.91488 0 0 1 0 35.81952zM942.09024 502.6816h-75.49952a17.91488 17.91488 0 0 1 0-35.81952h75.49952a17.91488 17.91488 0 0 1 0 35.81952zM942.09024 578.27328h-75.49952a17.91488 17.91488 0 0 1 0-35.81952h75.49952a17.91488 17.91488 0 0 1 0 35.81952zM942.09024 653.86496h-75.49952a17.91488 17.91488 0 0 1 0-35.81952h75.49952a17.91488 17.91488 0 0 1 0 35.81952z" fill="" p-id="1037"></path><path d="M800.35328 484.77184s-16.13824-84.5568-87.81824-84.5568-126.29504 202.24-200.53504 202.24c-47.36 0-87.89504-117.6832-147.62496-117.6832s-140.72832 117.6832-140.72832 117.6832v90.44992h576.70656V484.77184z" fill="#76E276" p-id="1038"></path><path d="M800.35328 710.81984H223.64672a17.92 17.92 0 0 1-17.92-17.92v-90.4448c0-3.63008 1.1008-7.168 3.15904-10.15808 8.83712-12.84096 88.27392-125.44 155.48928-125.44 40.23296 0 70.15424 37.56544 96.54784 70.7072 17.536 22.02112 37.41184 46.976 51.08224 46.976 27.56096 0 59.08992-49.99168 86.912-94.09024 35.08224-55.61856 68.21376-108.14976 113.62304-108.14976 68.42368 0 98.87744 64.83968 105.4208 99.11808 0.21504 1.10592 0.31744 2.23232 0.31744 3.35872v208.128a17.92512 17.92512 0 0 1-17.92512 17.91488z m-558.78656-35.84h540.86656v-188.3136c-2.4064-10.48064-18.05824-68.53632-69.89824-68.53632-25.64096 0-56.27904 48.57344-83.30752 91.42784-34.36544 54.4768-69.89312 110.81216-117.22752 110.81216-30.94528 0-54.34368-29.37856-79.11424-60.48256-21.3504-26.80832-45.54752-57.19552-68.51072-57.19552-35.3792 0-92.5696 62.81728-122.8032 105.40544v66.88256z" fill="" p-id="1039"></path></svg>